<svg width="30" height="30" viewBox="0 0 30 30" fill="none" xmlns="http://www.w3.org/2000/svg">
<circle cx="15" cy="16" r="9.25" stroke="#0F0F0F" stroke-width="1.5"/>
<path d="M14.4502 10.8999C14.4502 10.6313 14.5723 10.4971 14.8164 10.4971H15.5781C15.8223 10.4971 15.9443 10.6313 15.9443 10.8999L15.7905 17.814C15.7905 18.0337 15.6807 18.1436 15.4609 18.1436H14.9336C14.7139 18.1436 14.604 18.0337 14.604 17.814L14.4502 10.8999ZM14.7871 21C14.5674 21 14.4575 20.8901 14.4575 20.6704V19.7769C14.4575 19.5571 14.5674 19.4473 14.7871 19.4473H15.6074C15.8271 19.4473 15.937 19.5571 15.937 19.7769V20.6704C15.937 20.8901 15.8271 21 15.6074 21H14.7871Z" fill="black"/>
</svg>
