<svg width="15" height="15" viewBox="0 0 15 15" fill="none" xmlns="http://www.w3.org/2000/svg">
<path fill-rule="evenodd" clip-rule="evenodd" d="M12.8839 0.883921C12.4934 0.493397 11.8602 0.493397 11.4697 0.883921L10.0555 2.29813L12.8839 5.12656L14.2981 3.71235C14.6887 3.32182 14.6887 2.68866 14.2981 2.29813L12.8839 0.883921ZM9.87902 3.18164C9.58613 2.88875 9.11125 2.88875 8.81836 3.18164L1.39374 10.6063C1.27899 10.721 1.20456 10.8699 1.18161 11.0305L0.828052 13.5054C0.794667 13.7391 0.87326 13.9749 1.04018 14.1418C1.20711 14.3087 1.44289 14.3873 1.67658 14.3539L4.15145 14.0004C4.3121 13.9774 4.46097 13.903 4.57572 13.7882L12.0003 6.36362C12.2932 6.07073 12.2932 5.59585 12.0003 5.30296L9.87902 3.18164ZM2.63118 11.4901L9.34869 4.77263L10.4093 5.83329L3.69184 12.5508L2.4544 12.7276L2.63118 11.4901Z" fill="#0F0F0F"/>
</svg>
