<svg width="23" height="14" viewBox="0 0 23 14" fill="none" xmlns="http://www.w3.org/2000/svg">
<path fill-rule="evenodd" clip-rule="evenodd" d="M16.5674 0.25C16.9817 0.25 17.3174 0.585786 17.3174 1V6.25H17.8851V3C17.8851 2.58579 18.2208 2.25 18.6351 2.25C19.0493 2.25 19.3851 2.58579 19.3851 3V6.25H21.635C22.0492 6.25 22.385 6.58578 22.385 7C22.385 7.41421 22.0492 7.75 21.635 7.75H19.3851V11C19.3851 11.4142 19.0493 11.75 18.6351 11.75C18.2208 11.75 17.8851 11.4142 17.8851 11V7.75H17.3174V13C17.3174 13.4142 16.9817 13.75 16.5674 13.75C16.1532 13.75 15.8174 13.4142 15.8174 13V7.75L7.2219 7.75L7.2219 13C7.2219 13.4142 6.88612 13.75 6.4719 13.75C6.05769 13.75 5.7219 13.4142 5.7219 13L5.7219 7.75H5.15529L5.15529 11C5.15529 11.4142 4.8195 11.75 4.40529 11.75C3.99107 11.75 3.65529 11.4142 3.65529 11V7.75H1.36475C0.950533 7.75 0.614746 7.41421 0.614746 7C0.614746 6.58579 0.950532 6.25 1.36475 6.25H3.65529L3.65529 3C3.65529 2.58579 3.99107 2.25 4.40529 2.25C4.8195 2.25 5.15529 2.58579 5.15529 3V6.25H5.7219V1C5.7219 0.585786 6.05769 0.25 6.4719 0.25C6.88612 0.25 7.2219 0.585786 7.2219 1V6.25L15.8174 6.25V1C15.8174 0.585786 16.1532 0.25 16.5674 0.25Z" fill="#0F0F0F"/>
</svg>
