<svg width="30" height="30" viewBox="0 0 30 30" fill="none" xmlns="http://www.w3.org/2000/svg">
<path d="M13.8749 14.7889L13.9501 14.7676L14.7929 14.5294C14.7931 14.5293 14.7933 14.5293 14.7934 14.5292C15.2102 14.4064 15.4936 14.2825 15.6549 14.1613C15.8085 14.0436 15.8924 13.8605 15.8924 13.5916V11.9614C15.8924 11.642 15.7631 11.4155 15.502 11.2663L15.5009 11.2657L15.5009 11.2657C15.2347 11.1092 14.8966 11.0277 14.4811 11.0277C14.0654 11.0277 13.7322 11.1092 13.475 11.265L13.473 11.2663L13.473 11.2662C13.2316 11.4048 13.1076 11.6292 13.1076 11.9614V12.6771C13.1076 12.8122 13.0486 12.9216 12.9334 12.9913C12.8263 13.0561 12.6785 13.0819 12.5038 13.0819C12.329 13.0819 12.1813 13.0561 12.0742 12.9913C11.959 12.9216 11.9 12.8122 11.9 12.6771V12.094C11.9 11.3541 12.149 10.7939 12.6603 10.4351C13.1666 10.0769 13.7753 9.9 14.4811 9.9C15.4593 9.9 16.202 10.1989 16.6879 10.8126C16.688 10.8126 16.688 10.8126 16.688 10.8126L16.6096 10.8747C16.8699 11.2016 17 11.608 17 12.094V13.4855C17 14.0157 16.8699 14.4486 16.6096 14.7843L13.8749 14.7889ZM13.8749 14.7889L13.8774 14.867L13.9529 17.2378C13.9533 17.3613 13.9996 17.4667 14.0994 17.5367C14.1931 17.6025 14.3213 17.6277 14.4685 17.6277C14.6157 17.6277 14.7439 17.6025 14.8377 17.5367C14.9376 17.4666 14.9838 17.361 14.9841 17.2373L15.0202 15.6417L13.8749 14.7889ZM15.1101 20.6819V19.5554C15.1101 19.4145 15.0466 19.3019 14.9253 19.2306C14.8123 19.1642 14.6556 19.1373 14.4685 19.1373C14.2854 19.1373 14.1315 19.1643 14.0203 19.2312C13.9009 19.3029 13.8395 19.4156 13.8395 19.5554V20.6819C13.8395 20.8217 13.9009 20.9344 14.0203 21.0062C14.1315 21.0731 14.2854 21.1 14.4685 21.1C14.6556 21.1 14.8123 21.0731 14.9253 21.0067C15.0466 20.9355 15.1101 20.8228 15.1101 20.6819Z" fill="#0F0F0F" stroke="black" stroke-width="0.2"/>
<circle cx="15" cy="16" r="9.25" stroke="#0F0F0F" stroke-width="1.5"/>
</svg>
