<svg width="30" height="30" viewBox="0 0 30 30" fill="none" xmlns="http://www.w3.org/2000/svg">
<path d="M18.75 17.75V19.375C18.75 19.806 18.5788 20.2193 18.274 20.524C17.9693 20.8288 17.556 21 17.125 21H10.625C10.194 21 9.7807 20.8288 9.47595 20.524C9.1712 20.2193 9 19.806 9 19.375V9.625C9 9.19402 9.1712 8.7807 9.47595 8.47595C9.7807 8.1712 10.194 8 10.625 8H16.8C17.6974 8 18.75 8.72759 18.75 9.625V11.25M21.35 17.75L24.6 14.5L21.35 11.25M13.55 14.5H23.95" stroke="#D51212" stroke-width="1.5" stroke-linecap="round" stroke-linejoin="round"/>
</svg>
