<svg width="16" height="19" viewBox="0 0 16 19" fill="none" xmlns="http://www.w3.org/2000/svg">
<path fill-rule="evenodd" clip-rule="evenodd" d="M7 1C7 0.447715 7.44772 0 8 0C8.55229 0 9 0.447715 9 1V2.08296C11.8377 2.55904 14 5.027 14 8V13L15.7929 14.7929C15.9255 14.9255 16 15.1054 16 15.2929C16 15.6834 15.6834 16 15.2929 16H14H12.5H3.5H2H0.707107C0.316583 16 0 15.6834 0 15.2929C0 15.1054 0.0744986 14.9255 0.207107 14.7929L2 13V8C2 5.027 4.16229 2.55904 7 2.08296V1ZM12.5 14.5V8C12.5 5.51472 10.4853 3.5 8 3.5C5.51472 3.5 3.5 5.51472 3.5 8V14.5H12.5ZM8 19C9.10457 19 10 18.1046 10 17H6C6 18.1046 6.89543 19 8 19Z" fill="#0F0F0F"/>
</svg>
