<svg width="30" height="30" viewBox="0 0 30 30" fill="none" xmlns="http://www.w3.org/2000/svg">
<path d="M14.1498 23C13.7096 23 13.3528 22.6432 13.3528 22.203V6.79704C13.3528 6.35685 13.7096 6 14.1498 6V6C14.59 6 14.9469 6.35685 14.9469 6.79704V22.203C14.9469 22.6432 14.59 23 14.1498 23V23ZM6.64679 15.6414C6.28958 15.6414 6 15.3518 6 14.9946V14.9946C6 14.6374 6.28958 14.3478 6.64679 14.3478H22.3532C22.7104 14.3478 23 14.6374 23 14.9946V14.9946C23 15.3518 22.7104 15.6414 22.3532 15.6414H6.64679Z" fill="#0F0F0F"/>
</svg>
