<svg width="15" height="18" viewBox="0 0 15 18" fill="none" xmlns="http://www.w3.org/2000/svg">
<path d="M0 6.4C0 5.84771 0.447715 5.4 1 5.4H1.5C2.05228 5.4 2.5 5.84771 2.5 6.4V17C2.5 17.5523 2.05228 18 1.5 18H1C0.447715 18 0 17.5523 0 17V6.4ZM6.2 1C6.2 0.447716 6.64772 0 7.2 0H7.5C8.05229 0 8.5 0.447715 8.5 1V17C8.5 17.5523 8.05228 18 7.5 18H7.2C6.64772 18 6.2 17.5523 6.2 17V1ZM12 11.2857C12 10.7334 12.4477 10.2857 13 10.2857H13.5C14.0523 10.2857 14.5 10.7334 14.5 11.2857V17C14.5 17.5523 14.0523 18 13.5 18H13C12.4477 18 12 17.5523 12 17V11.2857Z" fill="#0F0F0F"/>
</svg>
