<svg width="30" height="30" viewBox="0 0 30 30" fill="none" xmlns="http://www.w3.org/2000/svg">
<path d="M17.0317 5C17.1869 5 17.338 5.04801 17.4634 5.13709C17.5888 5.22617 17.682 5.35174 17.7295 5.49571L18.5357 7.93714C18.8743 8.09857 19.1983 8.28 19.5076 8.48429L22.0816 7.94429C22.2334 7.91271 22.3915 7.92889 22.5333 7.99051C22.675 8.05212 22.793 8.15599 22.8703 8.28714L24.902 11.7143C24.9795 11.8454 25.0124 11.9971 24.9958 12.1475C24.9792 12.298 24.914 12.4394 24.8096 12.5514L23.0432 14.4514C23.069 14.8158 23.069 15.1814 23.0432 15.5457L24.8096 17.4486C24.914 17.5606 24.9792 17.702 24.9958 17.8525C25.0124 18.0029 24.9795 18.1546 24.902 18.2857L22.8703 21.7143C22.7928 21.8452 22.6747 21.9488 22.533 22.0101C22.3913 22.0715 22.2332 22.0874 22.0816 22.0557L19.5076 21.5157C19.1997 21.7186 18.8743 21.9014 18.5371 22.0629L17.7295 24.5043C17.682 24.6483 17.5888 24.7738 17.4634 24.8629C17.338 24.952 17.1869 25 17.0317 25H12.9683C12.8131 25 12.662 24.952 12.5366 24.8629C12.4112 24.7738 12.318 24.6483 12.2705 24.5043L11.4658 22.0643C11.1281 21.9033 10.8023 21.7196 10.491 21.5143L7.91838 22.0557C7.76661 22.0873 7.60847 22.0711 7.46675 22.0095C7.32502 21.9479 7.20702 21.844 7.12974 21.7129L5.09805 18.2857C5.02046 18.1546 4.9876 18.0029 5.0042 17.8525C5.0208 17.702 5.086 17.5606 5.1904 17.4486L6.95677 15.5457C6.93118 15.1823 6.93118 14.8177 6.95677 14.4543L5.1904 12.5514C5.086 12.4394 5.0208 12.298 5.0042 12.1475C4.9876 11.9971 5.02046 11.8454 5.09805 11.7143L7.12974 8.28571C7.20723 8.15482 7.32533 8.05125 7.46704 7.9899C7.60874 7.92855 7.76677 7.91258 7.91838 7.94429L10.491 8.48571C10.8017 8.28143 11.1272 8.09714 11.4658 7.93571L12.272 5.49571C12.3193 5.35221 12.412 5.22697 12.5368 5.13793C12.6617 5.04889 12.8122 5.00061 12.9668 5H17.0302H17.0317ZM16.4952 6.42857H13.5048L12.6722 8.95286L12.1108 9.22C11.8348 9.35162 11.5683 9.5015 11.3133 9.66857L10.7944 10.0114L8.1324 9.45143L6.63721 11.9771L8.46222 13.9457L8.41824 14.5514C8.39718 14.8501 8.39718 15.1499 8.41824 15.4486L8.46222 16.0543L6.63428 18.0229L8.13093 20.5486L10.793 19.99L11.3119 20.3314C11.5669 20.4985 11.8333 20.6484 12.1093 20.78L12.6707 21.0471L13.5048 23.5714H16.4981L17.3337 21.0457L17.8936 20.78C18.1693 20.6487 18.4353 20.4988 18.6896 20.3314L19.207 19.99L21.8705 20.5486L23.3657 18.0229L21.5392 16.0543L21.5832 15.4486C21.6044 15.1494 21.6044 14.8492 21.5832 14.55L21.5392 13.9443L23.3672 11.9771L21.8705 9.45143L19.207 10.0086L18.6896 9.66857C18.4353 9.50116 18.1693 9.35127 17.8936 9.22L17.3337 8.95429L16.4967 6.42857H16.4952ZM15 10.7143C16.1663 10.7143 17.2849 11.1658 18.1096 11.9695C18.9343 12.7733 19.3976 13.8634 19.3976 15C19.3976 16.1366 18.9343 17.2267 18.1096 18.0305C17.2849 18.8342 16.1663 19.2857 15 19.2857C13.8337 19.2857 12.7151 18.8342 11.8904 18.0305C11.0657 17.2267 10.6024 16.1366 10.6024 15C10.6024 13.8634 11.0657 12.7733 11.8904 11.9695C12.7151 11.1658 13.8337 10.7143 15 10.7143ZM15 12.1429C14.2225 12.1429 13.4768 12.4439 12.9269 12.9797C12.3771 13.5155 12.0683 14.2422 12.0683 15C12.0683 15.7578 12.3771 16.4845 12.9269 17.0203C13.4768 17.5561 14.2225 17.8571 15 17.8571C15.7775 17.8571 16.5232 17.5561 17.0731 17.0203C17.6229 16.4845 17.9317 15.7578 17.9317 15C17.9317 14.2422 17.6229 13.5155 17.0731 12.9797C16.5232 12.4439 15.7775 12.1429 15 12.1429Z" fill="#0F0F0F"/>
</svg>
